OpenSim_Sub10_CSBaseline_GRF.mot
version=1
nRows=63
nColumns=19
inDegrees=no
endheader
time	lFx	lFy	lFz	lCOPx	lCOPy	lCOPz	rFx	rFy	rFz	rCOPx	rCOPy	rCOPz	lMx	lMy	lMz	rMx	rMy	rMz
22.77000000	-33.58768787	645.71046113	72.99605690	0.86969604	0	-0.63566044	70.46839891	630.04487793	-64.26952053	0.65195753	0	-0.34333515	0	-3.70254591	0	0	3.89448851	0.00000000
22.78000000	-32.41007394	639.26071896	71.60821474	0.86485202	0	-0.63546064	74.41629048	615.24500949	-60.91432061	0.64668967	0	-0.34348107	0	-3.56186752	0	0	3.94301400	0
22.79000000	-31.10198202	632.54962964	70.18505865	0.85975023	0	-0.63530267	77.68521292	595.90360508	-57.06942643	0.64123787	0	-0.34380864	0	-3.39817815	0	0	3.94245891	0
22.80000000	-29.63435726	625.42393758	68.83008565	0.85429776	0	-0.63515452	80.05410224	571.67284778	-52.78669574	0.63547162	0	-0.34431402	0	-3.25901814	0	0	3.91956745	0.00000000
22.81000000	-27.98618650	617.91927053	67.52974563	0.84863669	0	-0.63504929	81.41102718	543.06424609	-48.29655032	0.62958284	0	-0.34494211	0	-3.17400251	0	0	3.86852687	0
22.82000000	-26.23006852	610.29470868	66.26386348	0.84295181	0	-0.63501093	81.69804635	510.86273042	-43.78949215	0.62393769	0	-0.34562597	0	-3.12682742	0	0	3.68298811	-0.00000000
22.83000000	-24.33247677	602.78259939	65.02990288	0.83707551	0	-0.63499469	81.05952623	475.77043458	-39.44711211	0.61864274	0	-0.34634010	0	-3.10453812	0	0	3.38357334	-0.00000000
22.84000000	-22.20737702	595.70879845	63.83351508	0.83088144	0	-0.63499885	79.55513394	438.40265596	-35.30490673	0.61340436	0	-0.34699239	0	-3.12314793	0	0	2.98415200	-0.00000000
22.85000000	-19.81254902	589.42840302	62.63968958	0.82447550	0	-0.63502863	77.16602260	398.99916953	-31.13439840	0.60802786	0	-0.34746956	0	-3.14155493	0	0	2.52641263	0
22.86000000	-17.38043040	584.19885033	61.55625765	0.81815515	0	-0.63503606	73.68820668	357.43709606	-26.69370558	0.60259304	0	-0.34779021	0	-3.14475401	0	0	2.08521232	0
22.87000000	-14.98169956	580.05080833	60.65156739	0.81185377	0	-0.63496200	68.81503746	313.90831692	-21.99046179	0.59743750	0	-0.34808835	0	-3.14427663	0	0	1.66991226	0.00000000
22.88000000	-12.45410497	576.93054892	59.89328570	0.80534931	0	-0.63481517	62.19687848	269.18625852	-17.34064470	0.59316281	0	-0.34883633	0	-3.16679259	0	0	1.27882799	0
22.89000000	-9.68091160	574.92249037	59.24606234	0.79858915	0	-0.63465479	53.90715655	224.87967544	-13.15876417	0.59061457	0	-0.35079723	0	-3.23955648	0	0	0.97460601	0.00000000
22.90000000	-6.84370048	574.36736218	58.75025919	0.79165273	0	-0.63451495	44.74444812	182.98224738	-9.74126753	0.59059255	0	-0.35452017	0	-3.35533747	0	0	0.81208573	0.00000000
22.91000000	-4.10888291	575.81539444	58.45672691	0.78455613	0	-0.63441289	35.85007806	144.74198306	-7.13439265	0.59115026	0	-0.35853777	0	-3.48626793	0	0	0.73828598	0
22.92000000	-1.44239339	579.66150430	58.32773720	0.77729726	0	-0.63436380	27.89894293	110.42243364	-5.30363942	0.58574918	0	-0.35615905	0	-3.59824836	0	0	0.74855372	0.00000000
22.93000000	1.21483290	586.11104222	58.38044200	0.76986140	0	-0.63435206	20.88142980	80.60315764	-4.08777419	0.56198449	0	-0.33367183	0	-3.69557000	0	0	0.83072221	0
22.94000000	3.88462970	595.17631243	58.61238236	0.76232923	0	-0.63436444	14.15330300	56.45086647	-3.14126378	0.50336669	0	-0.27536424	0	-3.76399168	0	0	0.79744692	-0.00000000
22.95000000	6.52835861	606.39986194	59.00141631	0.75476219	0	-0.63436912	7.83799374	38.29231383	-2.30896234	0.40008571	0	-0.18533060	0	-3.80252199	0	0	0.54037014	0.00000000
22.96000000	9.33305458	618.88726478	59.54176784	0.74722273	0	-0.63436281	2.46083179	24.83395614	-1.63211257	0.25844075	0	-0.09300686	0	-3.86576489	0	0	0.23919101	0
22.97000000	12.41881968	631.99191205	60.21146860	0.73969081	0	-0.63439063	-1.20964972	14.55069479	-1.19756646	0.11498650	0	-0.02801402	0	-3.94280980	0	0	0.03857928	-0.00000000
22.98000000	15.73559942	644.90647439	60.98582783	0.73226044	0	-0.63444799	-2.56601456	6.93197879	-0.76418704	0.02465529	0	0.00192206	0	-4.00381364	0	0	-0.03203036	-0.00000000
22.99000000	19.07196093	656.68802423	61.85768193	0.72515939	0	-0.63453464	-1.88564108	2.03051509	-0.30363968	-0.01043528	0	0.00893840	0	-4.10320928	0	0	-0.03601267	-0.00000000
23	22.42089406	666.63901236	62.73376667	0.71826390	0	-0.63461294	-0.75613200	-0.17465167	0.02366059	-0.01492014	0	0.00670361	0	-4.23448471	0	0	-0.02060388	0.00000000
23.01000000	25.74737380	674.52471475	63.54849333	0.71124981	0	-0.63461528	-0.02824726	-0.55186620	0.16118052	-0.00928388	0	0.00305047	0	-4.37512206	0	0	-0.00712358	-0.00000000
23.02000000	28.86222615	680.75263792	64.24435711	0.70409199	0	-0.63450726	0.28760421	-0.15730021	0.23616646	-0.00355443	0	0.00069289	0	-4.48530045	0	0	-0.00031282	-0.00000000
23.03000000	31.41238977	686.00183280	64.77111347	0.69716077	0	-0.63431938	0.38993500	0.26709675	0.23375101	-0.00041896	0	-0.00024553	0	-4.54248847	0	0	0.00162629	-0.00000000
23.04000000	33.26477819	690.29034720	65.04541216	0.69070153	0	-0.63406277	0.40645078	0.48464096	0.16147984	0.00059941	0	-0.00038079	0	-4.55112237	0	0	0.00139441	0.00000000
23.05000000	34.61640824	692.78506322	64.98072618	0.68466328	0	-0.63372353	0.34770759	0.61083338	0.12355678	0.00059403	0	-0.00024243	0	-4.48632425	0	0	0.00069596	-0.00000000
23.06000000	35.84222020	692.57896451	64.63645867	0.67892795	0	-0.63334445	0.26476093	0.72820875	0.11637096	0.00032112	0	-0.00009514	0	-4.37062152	0	0	0.00019369	0.00000000
23.07000000	37.14043918	689.27309983	64.11722541	0.67351539	0	-0.63297552	0.20425980	0.87278394	0.09601832	0.00010238	0	-0.00001282	0	-4.23618789	0	0	-0.00002729	-0.00000000
23.08000000	38.52567643	683.13946684	63.42221781	0.66834787	0	-0.63267837	0.19118573	1.02778282	0.11004478	-0.00000209	0	0.00001475	0	-4.07250497	0	0	-0.00007310	0.00000000
23.09000000	40.17448685	674.91679531	62.42689154	0.66309303	0	-0.63248519	0.19234659	1.12448931	0.16202818	-0.00002869	0	0.00001528	0	-3.84276183	0	0	-0.00005177	-0.00000000
23.10000000	42.25567307	665.30621514	61.04184518	0.65736692	0	-0.63238659	0.17408532	1.10521893	0.16578276	-0.00002259	0	0.00000844	0	-3.52610831	0	0	-0.00002248	0.00000000
23.11000000	44.84232616	654.48563633	59.25781629	0.65127365	0	-0.63238875	0.16100603	1.00497961	0.20102605	-0.00001066	0	0.00000277	0	-3.14176457	0	0	-0.00000448	-0.00000000
23.12000000	47.68810998	641.90834872	57.20198984	0.64488019	0	-0.63251153	0.18264938	0.90331857	0.27133513	-0.00000264	0	0.00000001	0	-2.73284484	0	0	0.00000231	-0.00000000
23.13000000	50.57524667	626.87430425	54.97649325	0.63821667	0	-0.63274089	0.18855714	0.83150640	0.20092872	0.00000069	0	-0.00000072	0	-2.36301324	0	0	0.00000304	0.00000000
23.14000000	53.38716100	609.19574885	52.53351643	0.63152107	0	-0.63300754	0.17622703	0.81784551	0.06561713	0.00000124	0	-0.00000058	0	-2.02636612	0	0	0.00000183	0.00000000
23.15000000	55.92742530	588.96628456	49.87138598	0.62504420	0	-0.63320691	0.17278253	0.80409071	-0.02435480	0.00000080	0	-0.00000027	0	-1.68215864	0	0	0.00000066	0.00000000
23.16000000	57.79720164	566.18994952	47.04386611	0.61886593	0	-0.63323542	0.15758291	0.74432738	-0.03777926	0.00000027	0	-0.00000005	0	-1.35010177	0	0	0.00000004	-0.00000000
23.17000000	58.83280772	540.95908701	44.05681344	0.61291589	0	-0.63301575	0.13243662	0.63277074	0.06290460	-0.00000006	0	0.00000006	0	-1.05058939	0	0	-0.00000009	0.00000000
23.18000000	59.12859021	513.44732277	40.86076951	0.60704821	0	-0.63253046	0.13576002	0.53545894	0.12107209	-0.00000012	0	0.00000007	0	-0.75580875	0	0	0.00000008	0.00000000
23.19000000	58.87909241	484.04397044	37.50708157	0.60140524	0	-0.63184754	0.13552781	0.55755037	0.11003446	0.00000014	0	-0.00000004	0	-0.48169448	0	0	0.00000042	-0.00000000
23.20000000	58.16333158	453.45338221	34.13533395	0.59648686	0	-0.63106794	0.09941598	0.70149596	0.07261206	0.00000084	0	-0.00000031	0	-0.24882636	0	0	0.00000070	-0.00000000
23.21000000	56.88457680	422.03389910	30.73198281	0.59213840	0	-0.63025081	0.04946670	0.79793122	-0.00326452	0.00000194	0	-0.00000074	0	-0.05357025	0	0	0.00000039	0.00000000
23.22000000	55.08918219	389.58847862	27.13075954	0.58785753	0	-0.62931666	0.01000837	0.78883744	-0.07842068	0.00000265	0	-0.00000105	0	0.15256169	0	0	-0.00000155	0.00000000
23.23000000	52.77689679	355.71966594	23.43912230	0.58325066	0	-0.62816364	-0.00399482	0.75533609	-0.13469677	0.00000074	0	-0.00000040	0	0.33010109	0	0	-0.00000622	0.00000000
23.24000000	49.97180050	320.18019556	19.83558868	0.57856106	0	-0.62678821	0.01514163	0.78727216	-0.12127796	-0.00000781	0	0.00000275	0	0.43871606	0	0	-0.00001315	0.00000000
23.25000000	46.83492484	283.38888367	16.31552877	0.57409759	0	-0.62543238	0.02984144	0.84271831	-0.10139638	-0.00002668	0	0.00000993	0	0.49522060	0	0	-0.00001663	0.00000000
23.26000000	43.76870547	246.09383255	12.80563792	0.56961612	0	-0.62464488	0.05212982	0.85338560	-0.11681169	-0.00005200	0	0.00001995	0	0.56570506	0	0	-0.00000100	0.00000000
23.27000000	40.73470496	209.22799352	9.52218557	0.56547985	0	-0.62541475	0.08879655	0.79327557	-0.10529609	-0.00005788	0	0.00002339	0	0.58327231	0	0	0.00006001	0.00000000
23.28000000	37.19764816	173.83648967	6.90126771	0.56327110	0	-0.62902529	0.11358910	0.71882247	-0.05865930	0.00002013	0	-0.00000411	0	0.36656353	0	0	0.00018733	-0.00000000
23.29000000	32.95150624	140.58975401	5.06661250	0.56448633	0	-0.63571530	0.10506343	0.73966394	-0.00558125	0.00028105	0	-0.00010126	0	-0.09523959	0	0	0.00034550	0.00000000
23.30000000	28.05412103	110.09740290	3.81752215	0.56623174	0	-0.64138368	0.09501445	0.77586485	0.01465539	0.00078335	0	-0.00029415	0	-0.66228887	0	0	0.00034648	-0.00000000
23.31000000	22.65123695	83.34888385	2.96545930	0.55707756	0	-0.63257836	0.13080090	0.74599613	0.04181165	0.00133046	0	-0.00051580	0	-1.18904358	0	0	-0.00025026	0.00000000
23.32000000	16.97582718	61.26231623	2.40945658	0.51655528	0	-0.58378921	0.21409585	0.66557685	0.09925740	0.00109934	0	-0.00046239	0	-1.49574639	0	0	-0.00207930	-0.00000000
23.33000000	11.39596115	43.62864108	2.04578053	0.42261380	0	-0.46785770	0.31751066	0.43170796	0.09205139	-0.00168222	0	0.00054147	0	-1.37847528	0	0	-0.00541136	0.00000000
23.34000000	6.60044229	29.51794558	1.74697547	0.27578300	0	-0.29264787	0.35338554	-0.04504582	-0.02222368	-0.00931425	0	0.00340961	0	-0.82422557	0	0	-0.00866814	0.00000000
23.35000000	3.58430433	18.00690245	1.39027815	0.12668484	0	-0.12601838	0.11184250	-0.71711457	-0.22931803	-0.02211223	0	0.00837635	0	-0.30925212	0	0	-0.00599542	-0.00000000
23.36000000	3.15320382	8.82702648	1.01514482	0.03020298	0	-0.02506806	-0.76044527	-1.07143790	-0.48175157	-0.03231974	0	0.01269327	0	-0.03237914	0	0	0.01452938	0.00000000
23.37000000	4.62281360	2.54675976	0.69231341	-0.00904513	0	0.01301165	-2.58434088	0.61883827	-0.44173999	-0.01501471	0	0.00706484	0	0.05543654	0	0	0.06717729	0.00000000
23.38000000	6.05630048	-0.25055687	0.46199331	-0.01526177	0	0.01710732	-4.85605590	7.27381355	0.68288365	0.07662468	0	-0.02652100	0	0.05325903	0	0	0.15039244	0
23.39000000	6.78450165	-0.79338743	0.40401778	-0.00992608	0	0.01036881	-5.30979435	22.03549977	3.73270660	0.29131839	0	-0.10791312	0	0.02834359	0	0	0.20530153	0
